solid OpenSCAD_Model
  facet normal -1 0 0
    outer loop
      vertex -75 -1.5 -7.5
      vertex -75 1.5 7.5
      vertex -75 1.5 -7.5
    endloop
  endfacet
  facet normal 0 0 -1
    outer loop
      vertex 75 1.5 -7.5
      vertex -75 -1.5 -7.5
      vertex -75 1.5 -7.5
    endloop
  endfacet
  facet normal 0 1 0
    outer loop
      vertex -75 1.5 7.5
      vertex 75 1.5 -7.5
      vertex -75 1.5 -7.5
    endloop
  endfacet
  facet normal -1 0 0
    outer loop
      vertex -75 1.5 7.5
      vertex -75 -1.5 -7.5
      vertex -75 -1.5 7.5
    endloop
  endfacet
  facet normal 0 -1 0
    outer loop
      vertex -75 -1.5 -7.5
      vertex 75 -1.5 7.5
      vertex -75 -1.5 7.5
    endloop
  endfacet
  facet normal 0 0 1
    outer loop
      vertex 75 -1.5 7.5
      vertex -75 1.5 7.5
      vertex -75 -1.5 7.5
    endloop
  endfacet
  facet normal 0 0 -1
    outer loop
      vertex -75 -1.5 -7.5
      vertex 75 1.5 -7.5
      vertex 75 -1.5 -7.5
    endloop
  endfacet
  facet normal 0 -1 0
    outer loop
      vertex 75 -1.5 7.5
      vertex -75 -1.5 -7.5
      vertex 75 -1.5 -7.5
    endloop
  endfacet
  facet normal 1 0 0
    outer loop
      vertex 75 1.5 -7.5
      vertex 75 -1.5 7.5
      vertex 75 -1.5 -7.5
    endloop
  endfacet
  facet normal 0 0 1
    outer loop
      vertex -75 1.5 7.5
      vertex 75 -1.5 7.5
      vertex 75 1.5 7.5
    endloop
  endfacet
  facet normal 0 1 0
    outer loop
      vertex 75 1.5 -7.5
      vertex -75 1.5 7.5
      vertex 75 1.5 7.5
    endloop
  endfacet
  facet normal 1 0 0
    outer loop
      vertex 75 -1.5 7.5
      vertex 75 1.5 -7.5
      vertex 75 1.5 7.5
    endloop
  endfacet
  facet normal -1 0 0
    outer loop
      vertex -75 7.5 -7.5
      vertex -75 10.5 7.5
      vertex -75 10.5 -7.5
    endloop
  endfacet
  facet normal 0 0 -1
    outer loop
      vertex 75 10.5 -7.5
      vertex -75 7.5 -7.5
      vertex -75 10.5 -7.5
    endloop
  endfacet
  facet normal 0 1 0
    outer loop
      vertex -75 10.5 7.5
      vertex 75 10.5 -7.5
      vertex -75 10.5 -7.5
    endloop
  endfacet
  facet normal -1 0 0
    outer loop
      vertex -75 10.5 7.5
      vertex -75 7.5 -7.5
      vertex -75 7.5 7.5
    endloop
  endfacet
  facet normal 0 -1 0
    outer loop
      vertex -75 7.5 -7.5
      vertex 75 7.5 7.5
      vertex -75 7.5 7.5
    endloop
  endfacet
  facet normal 0 0 1
    outer loop
      vertex 75 7.5 7.5
      vertex -75 10.5 7.5
      vertex -75 7.5 7.5
    endloop
  endfacet
  facet normal 0 0 -1
    outer loop
      vertex -75 7.5 -7.5
      vertex 75 10.5 -7.5
      vertex 75 7.5 -7.5
    endloop
  endfacet
  facet normal 0 -1 0
    outer loop
      vertex 75 7.5 7.5
      vertex -75 7.5 -7.5
      vertex 75 7.5 -7.5
    endloop
  endfacet
  facet normal 1 0 0
    outer loop
      vertex 75 10.5 -7.5
      vertex 75 7.5 7.5
      vertex 75 7.5 -7.5
    endloop
  endfacet
  facet normal 0 1 0
    outer loop
      vertex 75 10.5 -7.5
      vertex -75 10.5 7.5
      vertex 75 10.5 7.5
    endloop
  endfacet
  facet normal 0 0 1
    outer loop
      vertex -75 10.5 7.5
      vertex 75 7.5 7.5
      vertex 75 10.5 7.5
    endloop
  endfacet
  facet normal 1 0 0
    outer loop
      vertex 75 7.5 7.5
      vertex 75 10.5 -7.5
      vertex 75 10.5 7.5
    endloop
  endfacet
endsolid OpenSCAD_Model
