solid OpenSCAD_Model
  facet normal 0 0 1
    outer loop
      vertex -150 1.5 7.5
      vertex 150 -1.5 7.5
      vertex 150 1.5 7.5
    endloop
  endfacet
  facet normal 0 0 1
    outer loop
      vertex 150 -1.5 7.5
      vertex -150 1.5 7.5
      vertex -150 -1.5 7.5
    endloop
  endfacet
  facet normal 0 0 -1
    outer loop
      vertex -150 -1.5 -7.5
      vertex 150 1.5 -7.5
      vertex 150 -1.5 -7.5
    endloop
  endfacet
  facet normal 0 0 -1
    outer loop
      vertex 150 1.5 -7.5
      vertex -150 -1.5 -7.5
      vertex -150 1.5 -7.5
    endloop
  endfacet
  facet normal 0 -1 0
    outer loop
      vertex -150 -1.5 -7.5
      vertex 150 -1.5 7.5
      vertex -150 -1.5 7.5
    endloop
  endfacet
  facet normal 0 -1 0
    outer loop
      vertex 150 -1.5 7.5
      vertex -150 -1.5 -7.5
      vertex 150 -1.5 -7.5
    endloop
  endfacet
  facet normal 1 0 0
    outer loop
      vertex 150 -1.5 7.5
      vertex 150 1.5 -7.5
      vertex 150 1.5 7.5
    endloop
  endfacet
  facet normal 1 0 0
    outer loop
      vertex 150 1.5 -7.5
      vertex 150 -1.5 7.5
      vertex 150 -1.5 -7.5
    endloop
  endfacet
  facet normal 0 1 0
    outer loop
      vertex 150 1.5 -7.5
      vertex -150 1.5 7.5
      vertex 150 1.5 7.5
    endloop
  endfacet
  facet normal 0 1 0
    outer loop
      vertex -150 1.5 7.5
      vertex 150 1.5 -7.5
      vertex -150 1.5 -7.5
    endloop
  endfacet
  facet normal -1 0 0
    outer loop
      vertex -150 -1.5 -7.5
      vertex -150 1.5 7.5
      vertex -150 1.5 -7.5
    endloop
  endfacet
  facet normal -1 0 0
    outer loop
      vertex -150 1.5 7.5
      vertex -150 -1.5 -7.5
      vertex -150 -1.5 7.5
    endloop
  endfacet
endsolid OpenSCAD_Model
